HIERARCHY
ROOT Hips
{
    OFFSET 0.000000 0.000000 0.000000
    CHANNELS 6 Xposition Yposition Zposition Zrotation Xrotation Yrotation
    JOINT Spine
    {
        OFFSET -0.000000 7.305679 0.000000
        CHANNELS 3 Zrotation Xrotation Yrotation
        JOINT Spine1
        {
            OFFSET -0.000000 20.356625 0.000000
            CHANNELS 3 Zrotation Xrotation Yrotation
            JOINT Neck
            {
                OFFSET -0.000000 22.138498 0.000000
                CHANNELS 3 Zrotation Xrotation Yrotation
                JOINT Head
                {
                    OFFSET -0.000000 13.809516 1.781873
                    CHANNELS 3 Zrotation Xrotation Yrotation
                    End Site
                    {
                        OFFSET -0.000000 17.818729 0.000000
                    }
                }
            }
            JOINT LeftShoulder
            {
                OFFSET 3.599131 17.989975 0.023592
                CHANNELS 3 Zrotation Xrotation Yrotation
                JOINT LeftArm
                {
                    OFFSET 12.560995 0.000000 0.000000
                    CHANNELS 3 Zrotation Xrotation Yrotation
                    JOINT LeftForeArm
                    {
                        OFFSET 22.903347 0.000000 0.000000
                        CHANNELS 3 Zrotation Xrotation Yrotation
                        JOINT LeftHand
                        {
                            OFFSET 21.865294 0.000000 0.000000
                            CHANNELS 3 Zrotation Xrotation Yrotation
                            JOINT LeftHandThumb1
                            {
                                OFFSET 1.853706 -2.106484 2.949078
                                CHANNELS 3 Zrotation Xrotation Yrotation
                                JOINT LeftHandThumb2
                                {
                                    OFFSET 2.049154 0.000000 1.336405
                                    CHANNELS 3 Zrotation Xrotation Yrotation
                                    JOINT LeftHandThumb3
                                    {
                                        OFFSET 2.672809 0.000000 0.000000
                                        CHANNELS 3 Zrotation Xrotation Yrotation
                                        End Site
                                        {
                                            OFFSET 2.381303 0.000000 0.000000
                                        }
                                    }
                                }
                            }
                            JOINT LeftHandIndex1
                            {
                                OFFSET 7.583345 0.000000 2.949078
                                CHANNELS 3 Zrotation Xrotation Yrotation
                                JOINT LeftHandIndex2
                                {
                                    OFFSET 4.454682 0.000000 0.000000
                                    CHANNELS 3 Zrotation Xrotation Yrotation
                                    JOINT LeftHandIndex3
                                    {
                                        OFFSET 2.227341 0.000000 0.000000
                                        CHANNELS 3 Zrotation Xrotation Yrotation
                                        End Site
                                        {
                                            OFFSET 1.984419 0.000000 0.000000
                                        }
                                    }
                                }
                            }
                            JOINT LeftHandMiddle1
                            {
                                OFFSET 7.583345 0.000000 0.977409
                                CHANNELS 3 Zrotation Xrotation Yrotation
                                JOINT LeftHandMiddle2
                                {
                                    OFFSET 4.900151 0.000000 0.000000
                                    CHANNELS 3 Zrotation Xrotation Yrotation
                                    JOINT LeftHandMiddle3
                                    {
                                        OFFSET 2.672809 0.000000 0.000000
                                        CHANNELS 3 Zrotation Xrotation Yrotation
                                        End Site
                                        {
                                            OFFSET 2.381303 0.000000 0.000000
                                        }
                                    }
                                }
                            }
                            JOINT LeftHandRing1
                            {
                                OFFSET 7.162047 0.000000 -0.977409
                                CHANNELS 3 Zrotation Xrotation Yrotation
                                JOINT LeftHandRing2
                                {
                                    OFFSET 4.454682 0.000000 0.000000
                                    CHANNELS 3 Zrotation Xrotation Yrotation
                                    JOINT LeftHandRing3
                                    {
                                        OFFSET 2.227341 0.000000 0.000000
                                        CHANNELS 3 Zrotation Xrotation Yrotation
                                        End Site
                                        {
                                            OFFSET 1.984419 0.000000 0.000000
                                        }
                                    }
                                }
                            }
                            JOINT LeftHandPinky1
                            {
                                OFFSET 6.740750 0.000000 -2.949078
                                CHANNELS 3 Zrotation Xrotation Yrotation
                                JOINT LeftHandPinky2
                                {
                                    OFFSET 3.563746 0.000000 0.000000
                                    CHANNELS 3 Zrotation Xrotation Yrotation
                                    JOINT LeftHandPinky3
                                    {
                                        OFFSET 1.781873 0.000000 0.000000
                                        CHANNELS 3 Zrotation Xrotation Yrotation
                                        End Site
                                        {
                                            OFFSET 1.587536 0.000000 0.000000
                                        }
                                    }
                                }
                            }
                        }
                    }
                }
            }
            JOINT RightShoulder
            {
                OFFSET -3.506995 17.989975 0.023592
                CHANNELS 3 Zrotation Xrotation Yrotation
                JOINT RightArm
                {
                    OFFSET -12.560995 0.000000 0.000000
                    CHANNELS 3 Zrotation Xrotation Yrotation
                    JOINT RightForeArm
                    {
                        OFFSET -22.903347 0.000000 0.000000
                        CHANNELS 3 Zrotation Xrotation Yrotation
                        JOINT RightHand
                        {
                            OFFSET -21.865294 0.000000 0.000000
                            CHANNELS 3 Zrotation Xrotation Yrotation
                            JOINT RightHandThumb1
                            {
                                OFFSET -1.853706 -2.106484 2.949078
                                CHANNELS 3 Zrotation Xrotation Yrotation
                                JOINT RightHandThumb2
                                {
                                    OFFSET -2.049154 0.000000 1.336405
                                    CHANNELS 3 Zrotation Xrotation Yrotation
                                    JOINT RightHandThumb3
                                    {
                                        OFFSET -2.672809 0.000000 0.000000
                                        CHANNELS 3 Zrotation Xrotation Yrotation
                                        End Site
                                        {
                                            OFFSET -2.381303 0.000000 0.000000
                                        }
                                    }
                                }
                            }
                            JOINT RightHandIndex1
                            {
                                OFFSET -7.583345 0.000000 2.949078
                                CHANNELS 3 Zrotation Xrotation Yrotation
                                JOINT RightHandIndex2
                                {
                                    OFFSET -4.454682 0.000000 0.000000
                                    CHANNELS 3 Zrotation Xrotation Yrotation
                                    JOINT RightHandIndex3
                                    {
                                        OFFSET -2.227341 0.000000 0.000000
                                        CHANNELS 3 Zrotation Xrotation Yrotation
                                        End Site
                                        {
                                            OFFSET -1.984419 0.000000 0.000000
                                        }
                                    }
                                }
                            }
                            JOINT RightHandMiddle1
                            {
                                OFFSET -7.583345 0.000000 0.977409
                                CHANNELS 3 Zrotation Xrotation Yrotation
                                JOINT RightHandMiddle2
                                {
                                    OFFSET -4.900151 0.000000 0.000000
                                    CHANNELS 3 Zrotation Xrotation Yrotation
                                    JOINT RightHandMiddle3
                                    {
                                        OFFSET -2.672809 0.000000 0.000000
                                        CHANNELS 3 Zrotation Xrotation Yrotation
                                        End Site
                                        {
                                            OFFSET -2.381303 0.000000 0.000000
                                        }
                                    }
                                }
                            }
                            JOINT RightHandRing1
                            {
                                OFFSET -7.162047 0.000000 -0.977409
                                CHANNELS 3 Zrotation Xrotation Yrotation
                                JOINT RightHandRing2
                                {
                                    OFFSET -4.454682 0.000000 0.000000
                                    CHANNELS 3 Zrotation Xrotation Yrotation
                                    JOINT RightHandRing3
                                    {
                                        OFFSET -2.227341 0.000000 0.000000
                                        CHANNELS 3 Zrotation Xrotation Yrotation
                                        End Site
                                        {
                                            OFFSET -1.984419 0.000000 0.000000
                                        }
                                    }
                                }
                            }
                            JOINT RightHandPinky1
                            {
                                OFFSET -6.740750 0.000000 -2.949078
                                CHANNELS 3 Zrotation Xrotation Yrotation
                                JOINT RightHandPinky2
                                {
                                    OFFSET -3.563746 0.000000 0.000000
                                    CHANNELS 3 Zrotation Xrotation Yrotation
                                    JOINT RightHandPinky3
                                    {
                                        OFFSET -1.781873 0.000000 0.000000
                                        CHANNELS 3 Zrotation Xrotation Yrotation
                                        End Site
                                        {
                                            OFFSET -1.587536 0.000000 0.000000
                                        }
                                    }
                                }
                            }
                        }
                    }
                }
            }
        }
    }
    JOINT LeftUpLeg
    {
        OFFSET 8.909365 0.000000 0.000000
        CHANNELS 3 Zrotation Xrotation Yrotation
        JOINT LeftLeg
        {
            OFFSET -0.000000 -38.765560 0.000000
            CHANNELS 3 Zrotation Xrotation Yrotation
            JOINT LeftFoot
            {
                OFFSET -0.000000 -35.244961 0.000000
                CHANNELS 3 Zrotation Xrotation Yrotation
                JOINT LeftToeBase
                {
                    OFFSET -0.000000 -5.791087 13.364048
                    CHANNELS 3 Zrotation Xrotation Yrotation
                    End Site
                    {
                        OFFSET -0.000000 0.000000 3.563746
                    }
                }
            }
        }
    }
    JOINT RightUpLeg
    {
        OFFSET -8.909365 0.000000 0.000000
        CHANNELS 3 Zrotation Xrotation Yrotation
        JOINT RightLeg
        {
            OFFSET -0.000000 -38.765560 0.000000
            CHANNELS 3 Zrotation Xrotation Yrotation
            JOINT RightFoot
            {
                OFFSET -0.000000 -35.244961 0.000000
                CHANNELS 3 Zrotation Xrotation Yrotation
                JOINT RightToeBase
                {
                    OFFSET -0.000000 -5.791087 13.364048
                    CHANNELS 3 Zrotation Xrotation Yrotation
                    End Site
                    {
                        OFFSET -0.000000 0.000000 3.563746
                    }
                }
            }
        }
    }
}
MOTION
Frames:    4
Frame Time:    0.008333
-3.657227    81.172005    101.506981    1.465126    1.363433    0.325750    1.061227    -3.603078    -1.170345    -6.738161    5.304646    -0.088837    3.827562    -1.281061    -1.451794    3.698879    3.410056    -1.618302    1.753461    2.467850    -11.649006    -84.083992    28.468704    -3.212252    10.844975    -3.328539    -0.733275    1.332029    -25.824581    10.278936    -1.472286    1.315752    -0.250487    -0.000000    0.000000    0.265730    -0.000000    0.000000    0.531460    -15.405444    4.263914    -15.100401    -31.941719    0.000000    0.000000    -15.970859    0.000000    0.000000    -23.569260    1.099479    -5.881957    -47.195549    0.000000    0.000000    -23.597775    0.000000    0.000000    -31.133596    -3.296932    2.808362    -62.449390    0.000000    0.000000    -31.224695    0.000000    0.000000    -38.208569    -8.931615    11.157457    -78.165459    0.000000    0.000000    -39.082729    0.000000    0.000000    -5.348701    -2.327855    -0.136777    96.509300    52.678371    -7.287174    -10.526657    -31.383478    1.395491    11.328858    -37.303402    -3.329240    0.838230    -1.603805    3.086322    0.000000    0.000000    0.000000    0.000000    0.000000    0.000000    16.435915    0.199009    0.674580    32.874172    0.000000    -0.000000    16.437090    0.000000    -0.000000    29.101013    -1.113533    -1.002980    58.240005    0.000000    -0.000000    29.119997    0.000000    -0.000000    41.733829    -2.761546    -2.353137    83.605827    0.000000    -0.000000    41.802910    0.000000    -0.000000    54.732552    -4.725324    -3.334132    109.740311    0.000000    -0.000000    54.870155    0.000000    -0.000000    -2.241922    -0.346903    -2.451539    -0.544669    -0.986343    8.619066    -1.521589    0.068771    -8.274692    0.291349    1.169556    -0.570174    0.519706    0.095184    -1.800984    0.333881    -0.755442    -8.262614    -0.754570    -1.764328    7.988366    -0.162118    -2.040632    0.047784    
-3.658213    81.171829    101.514183    1.459109    1.359182    0.323391    1.042037    -3.605964    -1.170254    -6.703157    5.314374    -0.089640    3.841476    -1.277996    -1.446127    3.705971    3.379272    -1.610861    1.757844    2.470724    -11.641838    -84.105537    28.496891    -3.193871    10.826551    -3.370992    -0.703513    1.213781    -25.914961    10.127351    -1.455144    1.334671    -0.205594    -0.000000    0.000000    0.310031    -0.000000    0.000000    0.620062    -15.380308    4.233966    -15.023895    -31.877731    0.000000    0.000000    -15.938869    0.000000    0.000000    -23.526945    1.079903    -5.832749    -47.109192    0.000000    0.000000    -23.554596    0.000000    0.000000    -31.078102    -3.300215    2.833355    -62.340660    0.000000    0.000000    -31.170326    0.000000    0.000000    -38.144203    -8.913460    11.160654    -78.033661    0.000000    0.000000    -39.016834    0.000000    0.000000    -5.349473    -2.323852    -0.138373    96.543900    52.681648    -7.314808    -10.535890    -31.390442    1.385969    11.313783    -37.322239    -3.313896    0.842733    -1.585920    3.061422    0.000000    0.000000    0.000000    0.000000    0.000000    0.000000    16.395918    0.188382    0.640207    32.793941    0.000000    -0.000000    16.396975    0.000000    -0.000000    29.047781    -1.131914    -1.038217    58.134907    0.000000    -0.000000    29.067459    0.000000    -0.000000    41.667305    -2.787371    -2.387919    83.475868    0.000000    -0.000000    41.737934    0.000000    -0.000000    54.652428    -4.758286    -3.367228    109.584747    0.000000    -0.000000    54.792366    0.000000    -0.000000    -2.234818    -0.337888    -2.449641    -0.545437    -0.984748    8.608335    -1.519083    0.063765    -8.264318    0.290402    1.166813    -0.568221    0.525979    0.098432    -1.799442    0.335625    -0.742952    -8.266808    -0.759911    -1.773210    7.993599    -0.161371    -2.041623    0.046485    
-3.659146    81.171684    101.521255    1.453113    1.355111    0.320750    1.022796    -3.608910    -1.170166    -6.668033    5.324840    -0.090469    3.855781    -1.273710    -1.440336    3.713859    3.338741    -1.602956    1.761902    2.474304    -11.634073    -84.126701    28.523243    -3.175707    10.808736    -3.410774    -0.675533    1.101919    -26.000240    9.984769    -1.437345    1.351265    -0.162734    -0.000000    0.000000    0.351818    -0.000000    0.000000    0.703636    -15.356543    4.205524    -14.950828    -31.817240    0.000000    0.000000    -15.908620    0.000000    0.000000    -23.488525    1.060712    -5.785038    -47.030678    0.000000    0.000000    -23.515343    0.000000    0.000000    -31.028658    -3.304854    2.858422    -62.244122    0.000000    0.000000    -31.122063    0.000000    0.000000    -38.087734    -8.898943    11.165146    -77.918579    0.000000    0.000000    -38.959286    0.000000    0.000000    -5.349690    -2.319302    -0.139857    96.576752    52.685257    -7.340523    -10.544180    -31.396351    1.377261    11.297695    -37.337223    -3.299675    0.846441    -1.569455    3.038181    0.000000    0.000000    0.000000    0.000000    0.000000    0.000000    16.356142    0.179403    0.611261    32.714199    0.000000    -0.000000    16.357100    0.000000    -0.000000    28.994209    -1.148118    -1.069295    58.029015    0.000000    -0.000000    29.014503    0.000000    -0.000000    41.599831    -2.810764    -2.419912    83.343826    0.000000    -0.000000    41.671906    0.000000    -0.000000    54.570702    -4.788868    -3.398999    109.425758    0.000000    -0.000000    54.712868    0.000000    -0.000000    -2.227844    -0.329168    -2.447907    -0.546022    -0.983045    8.596922    -1.515277    0.059073    -8.252826    0.289606    1.162931    -0.566781    0.532112    0.100925    -1.798647    0.337558    -0.729583    -8.270259    -0.764941    -1.782406    7.999187    -0.160688    -2.042346    0.045317    
-3.659983    81.171608    101.528023    1.447163    1.351315    0.317633    1.003308    -3.611396    -1.170272    -6.632393    5.336190    -0.091317    3.870723    -1.268167    -1.434255    3.723006    3.281519    -1.594255    1.765061    2.479021    -11.624961    -84.147133    28.546774    -3.157682    10.791928    -3.445467    -0.650797    1.002624    -26.076986    9.859198    -1.418870    1.363855    -0.123953    -0.000000    0.000000    0.388752    -0.000000    0.000000    0.777504    -15.335745    4.180366    -14.885738    -31.764194    0.000000    0.000000    -15.882097    0.000000    0.000000    -23.457394    1.042682    -5.741242    -46.966854    0.000000    0.000000    -23.483423    0.000000    0.000000    -30.990147    -3.311598    2.882976    -62.169521    0.000000    0.000000    -31.084757    0.000000    0.000000    -38.045151    -8.890798    11.171926    -77.832870    0.000000    0.000000    -38.916435    0.000000    0.000000    -5.348733    -2.314065    -0.141424    96.606316    52.689457    -7.362960    -10.550802    -31.399813    1.369657    11.280021    -37.345688    -3.287013    0.848734    -1.555618    3.018070    0.000000    0.000000    0.000000    0.000000    0.000000    0.000000    16.316551    0.173191    0.591609    32.634892    0.000000    -0.000000    16.317448    0.000000    -0.000000    28.939651    -1.160432    -1.093005    57.920876    0.000000    -0.000000    28.960442    0.000000    -0.000000    41.530140    -2.829564    -2.446699    83.206863    0.000000    -0.000000    41.603439    0.000000    -0.000000    54.485386    -4.814619    -3.427949    109.259087    0.000000    -0.000000    54.629543    0.000000    -0.000000    -2.221193    -0.321045    -2.446358    -0.546049    -0.981005    8.586316    -1.511278    0.054405    -8.241366    0.289262    1.158336    -0.566531    0.537940    0.102229    -1.799058    0.339776    -0.714926    -8.270974    -0.769733    -1.791880    8.003812    -0.160026    -2.043031    0.044188    
